<svg width="29" height="28" viewBox="0 0 29 28" fill="none" xmlns="http://www.w3.org/2000/svg">
<g clip-path="url(#clip0_1069_1127)">
<path d="M14.7507 24.4647C20.5249 24.4647 25.2059 19.7837 25.2059 14.0095C25.2059 8.23518 20.5249 3.5542 14.7507 3.5542C8.97639 3.5542 4.29541 8.23518 4.29541 14.0095C4.29541 19.7837 8.97639 24.4647 14.7507 24.4647Z" stroke="#121212" stroke-width="1.74254" stroke-linecap="round" stroke-linejoin="round"/>
<path d="M11.2651 11.6859H11.2784" stroke="#121212" stroke-width="1.74254" stroke-linecap="round" stroke-linejoin="round"/>
<path d="M18.2363 11.6859H18.2496" stroke="#121212" stroke-width="1.74254" stroke-linecap="round" stroke-linejoin="round"/>
<path d="M11.8462 17.7841C12.2248 17.3977 12.6766 17.0908 13.1753 16.8812C13.674 16.6717 14.2095 16.5637 14.7504 16.5637C15.2914 16.5637 15.8268 16.6717 16.3255 16.8812C16.8242 17.0908 17.2761 17.3977 17.6547 17.7841" stroke="#121212" stroke-width="1.74254" stroke-linecap="round" stroke-linejoin="round"/>
</g>
<defs>
<clipPath id="clip0_1069_1127">
<rect width="27.8807" height="27.8807" fill="white" transform="translate(0.810059 0.0679932)"/>
</clipPath>
</defs>
</svg>
