<svg width="29" height="29" viewBox="0 0 29 29" fill="none" xmlns="http://www.w3.org/2000/svg">
<g clip-path="url(#clip0_1069_1139)">
<path d="M14.6598 24.6753C20.4341 24.6753 25.1151 19.9943 25.1151 14.22C25.1151 8.44575 20.4341 3.76477 14.6598 3.76477C8.88557 3.76477 4.20459 8.44575 4.20459 14.22C4.20459 19.9943 8.88557 24.6753 14.6598 24.6753Z" stroke="#121212" stroke-width="1.74254" stroke-linecap="round" stroke-linejoin="round"/>
<path d="M11.1748 10.7345H11.1881" stroke="#121212" stroke-width="1.74254" stroke-linecap="round" stroke-linejoin="round"/>
<path d="M18.145 10.7345H18.1583" stroke="#121212" stroke-width="1.74254" stroke-linecap="round" stroke-linejoin="round"/>
<path d="M10.0127 15.3823C10.0127 16.6147 10.5023 17.7967 11.3737 18.6681C12.2451 19.5395 13.4271 20.0291 14.6595 20.0291C15.8919 20.0291 17.0738 19.5395 17.9452 18.6681C18.8167 17.7967 19.3063 16.6147 19.3063 15.3823M19.3063 15.3823H10.0127" stroke="#121212" stroke-width="1.74254" stroke-linecap="round" stroke-linejoin="round"/>
</g>
<defs>
<clipPath id="clip0_1069_1139">
<rect width="27.8807" height="27.8807" fill="white" transform="translate(0.719727 0.279053)"/>
</clipPath>
</defs>
</svg>
