<svg width="29" height="29" viewBox="0 0 29 29" fill="none" xmlns="http://www.w3.org/2000/svg">
<g clip-path="url(#clip0_1069_1133)">
<path d="M14.7961 24.6753C20.5704 24.6753 25.2513 19.9943 25.2513 14.22C25.2513 8.44575 20.5704 3.76477 14.7961 3.76477C9.0218 3.76477 4.34082 8.44575 4.34082 14.22C4.34082 19.9943 9.0218 24.6753 14.7961 24.6753Z" stroke="#121212" stroke-width="1.74254" stroke-linecap="round" stroke-linejoin="round"/>
<path d="M11.3105 11.8965H11.3238" stroke="#121212" stroke-width="1.74254" stroke-linecap="round" stroke-linejoin="round"/>
<path d="M18.2808 11.8965H18.294" stroke="#121212" stroke-width="1.74254" stroke-linecap="round" stroke-linejoin="round"/>
<path d="M11.8921 17.7026C12.2707 18.089 12.7225 18.396 13.2212 18.6055C13.7199 18.8151 14.2554 18.923 14.7963 18.923C15.3373 18.923 15.8727 18.8151 16.3714 18.6055C16.8701 18.396 17.322 18.089 17.7006 17.7026" stroke="#121212" stroke-width="1.74254" stroke-linecap="round" stroke-linejoin="round"/>
</g>
<defs>
<clipPath id="clip0_1069_1133">
<rect width="27.8807" height="27.8807" fill="white" transform="translate(0.855469 0.279053)"/>
</clipPath>
</defs>
</svg>
